<svg width="62" height="62" viewBox="0 0 62 62" fill="none" xmlns="http://www.w3.org/2000/svg">
<path d="M10.9819 22.3587C12.1614 19.6798 13.7357 17.3739 15.7041 15.4412C17.6728 13.5085 20.0068 11.9761 22.707 10.8463C25.4069 9.71544 28.2336 9.16395 31.1879 9.19111C33.9716 9.21671 36.6606 9.76661 39.2555 10.8419C41.8497 11.9154 44.1519 13.4204 46.1601 15.3519L49.8872 11.7208C50.4609 11.1388 51.1152 11.0123 51.851 11.3409C52.6057 11.6701 52.9793 12.2325 52.9719 13.0279L52.8549 25.7553C52.8504 26.2476 52.6666 26.6721 52.3034 27.0286C51.9399 27.3851 51.5122 27.5612 51.0199 27.5566L38.2935 27.4396C37.4979 27.4323 36.9428 27.0485 36.6279 26.2878C36.3129 25.5463 36.4514 24.8941 37.0438 24.3311L40.9717 20.4465C39.6572 19.1843 38.1511 18.2093 36.4516 17.521C34.7531 16.8331 32.9763 16.4802 31.1203 16.4631C29.1507 16.445 27.2675 16.8116 25.4718 17.562C23.675 18.3127 22.1178 19.3354 20.7989 20.6303C19.4801 21.9249 18.4289 23.4635 17.6454 25.2463C16.8622 27.0291 16.4614 28.9051 16.4433 30.8741C16.4252 32.8443 16.7915 34.7273 17.5417 36.5231C18.2923 38.32 19.315 39.8778 20.6098 41.1967C21.9046 42.5156 23.4432 43.5668 25.2255 44.3501C27.0081 45.1337 28.8846 45.5345 30.8528 45.5526C33.1066 45.5733 35.2415 45.1006 37.2582 44.1343C39.2745 43.1681 40.9822 41.7917 42.3812 40.0048C42.5154 39.8166 42.7327 39.7046 43.0377 39.6694C43.3219 39.672 43.5579 39.7593 43.7456 39.9315L47.6014 43.888C47.7513 44.0414 47.8301 44.2357 47.8373 44.4726C47.8446 44.7098 47.7809 44.9219 47.6466 45.11C45.5592 47.5912 43.0418 49.5048 40.0937 50.8507C37.1457 52.1965 34.0429 52.8549 30.7856 52.825C27.8314 52.7978 25.0149 52.1941 22.3363 51.0141C19.6576 49.8342 17.3526 48.2594 15.4194 46.2912C13.4869 44.322 11.9545 41.9882 10.8248 39.2881C9.69442 36.588 9.14297 33.7604 9.17014 30.8062C9.1973 27.8514 9.80099 25.0358 10.9809 22.3569" fill="#C9ECFF"/>
</svg>
